<svg width="1920" height="111" viewBox="0 0 1920 111" fill="none" xmlns="http://www.w3.org/2000/svg">
<path fill-rule="evenodd" clip-rule="evenodd" d="M1920 76.6436V94.3451C1907.51 100.345 1670.13 117.846 1440.25 107.301C1322.31 101.892 1142.9 72.3457 984.487 52.8457C883.04 40.3583 643.665 35.3457 482.749 42.8457C322.832 48.8457 172.41 67.2361 92.4519 72.3457L4.75645e-05 81.8457L0.499787 -9.91821e-05L80.9579 -9.91821e-05C160.916 -9.91821e-05 320.833 -9.91821e-05 480.75 -9.91821e-05C640.666 -9.91821e-05 800.583 -9.91821e-05 960.5 -9.91821e-05C1120.42 -9.91821e-05 1280.33 -9.91821e-05 1440.25 -9.91821e-05C1600.17 -9.91821e-05 1760.08 -9.91821e-05 1840.04 -9.91821e-05L1920 -9.91821e-05V76.6436Z" fill="#F9F6FF"/>
</svg>
