<svg width="1920" height="98" viewBox="0 0 1920 98" fill="none" xmlns="http://www.w3.org/2000/svg">
<path fill-rule="evenodd" clip-rule="evenodd" d="M0 73.5L14.5 71.5C33.5 71.5 241.5 8.99954 479.75 8.99954C592.09 8.99954 788 34.9999 937.5 54.4999C1038.85 67.72 1274.08 53 1435 45.5C1595.5 34 1747 19 1826.5 10.5L1919.5 0V97.1105H1839.04C1759.08 97.1105 1599.17 97.1105 1439.25 97.1105C1279.33 97.1105 1119.42 97.1105 959.5 97.1105C799.584 97.1105 639.667 97.1105 479.75 97.1105C319.833 97.1105 159.917 97.1105 79.9584 97.1105H0L0 73.5Z" fill="#F9F6FF"/>
</svg>
