<svg width="360" height="72" viewBox="0 0 360 72" fill="none" xmlns="http://www.w3.org/2000/svg">
<path fill-rule="evenodd" clip-rule="evenodd" d="M360 36L345 40C330 44 300 52 270 58C240 64 210 68 180 62C150 56 120 40 90 40C60 40 30 56 15 64L-1.43051e-05 72L-8.01067e-06 -3.3618e-05L15 -3.23066e-05C30 -3.09953e-05 60 -2.83726e-05 90 -2.57499e-05C120 -2.31272e-05 150 -2.05046e-05 180 -1.78819e-05C210 -1.52592e-05 240 -1.26365e-05 270 -1.00138e-05C300 -7.39113e-06 330 -4.76845e-06 345 -3.45711e-06L360 -2.14577e-06L360 36Z" fill="white"/>
</svg>
