<svg width="360" height="52" viewBox="0 0 360 52" fill="none" xmlns="http://www.w3.org/2000/svg">
<path fill-rule="evenodd" clip-rule="evenodd" d="M360 41.5486L345 45.0491C330.5 48.5486 307.5 54.0495 281.5 50.0457C258.5 49.0457 206.5 17.7682 176.5 7.03806C146.5 -3.69207 104.5 1.03804 104.5 1.03804C88.5 1.03806 28.5 21.0073 13.5 24.5841L0 29.584V0.0840645H15C30 0.0840645 60 0.0840645 90 0.0840645C120 0.0840645 150 0.0840645 180 0.0840645C210 0.0840645 240 0.0840645 270 0.0840645C300 0.0840645 330 0.0840645 345 0.0840645H360V41.5486Z" fill="#F9F6FF"/>
</svg>
