<svg width="1920" height="150" viewBox="0 0 1920 150" fill="none" xmlns="http://www.w3.org/2000/svg">
<path fill-rule="evenodd" clip-rule="evenodd" d="M1920 75.0001L1840 83.3335C1760 91.6668 1600 108.333 1440 120.833C1280 133.333 1120 141.667 960 129.167C800 116.667 640 83.3333 480 83.3333C320 83.3333 160 116.667 80 133.333L-2.86102e-05 150L-1.54968e-05 -4.00594e-05L80 -3.30656e-05C160 -2.60717e-05 320 -1.20841e-05 480 1.90356e-06C640 1.58912e-05 800 2.98788e-05 960 4.38665e-05C1120 5.78541e-05 1280 7.18418e-05 1440 8.58294e-05C1600 9.98171e-05 1760 0.000113805 1840 0.000120799L1920 0.000127792L1920 75.0001Z" fill="white"/>
</svg>
