<svg width="169" height="22" viewBox="0 0 169 22" fill="none" xmlns="http://www.w3.org/2000/svg">
<g clip-path="url(#clip0_408_67)">
<path d="M11.7304 5.97705L9.29276 8.43577L6.85428 5.97705C5.50788 4.62009 5.50788 2.41657 6.85428 1.01737C7.17332 0.69519 7.55305 0.439437 7.97152 0.264897C8.38999 0.0903559 8.83891 0.000488281 9.29232 0.000488281C9.74574 0.000488281 10.1947 0.0903559 10.6131 0.264897C11.0316 0.439437 11.4113 0.69519 11.7304 1.01737C13.0768 2.41657 13.0768 4.62009 11.7304 5.97705Z" fill="#5FAF2D"/>
<path d="M6.85428 12.9281L9.29188 10.4702L11.7304 12.9281C13.0768 14.285 13.0768 16.4894 11.7304 17.8877C11.4113 18.2099 11.0316 18.4657 10.6131 18.6402C10.1947 18.8147 9.74574 18.9046 9.29232 18.9046C8.83891 18.9046 8.38999 18.8147 7.97152 18.6402C7.55305 18.4657 7.17332 18.2099 6.85428 17.8877C5.50788 16.4885 5.50788 14.285 6.85428 12.9281Z" fill="#005A28"/>
<path d="M12.7388 11.9538L10.3003 9.45285L12.7379 6.99413C13.0569 6.67182 13.4367 6.41595 13.8553 6.24134C14.2738 6.06672 14.7229 5.97681 15.1764 5.97681C15.6299 5.97681 16.0789 6.06672 16.4975 6.24134C16.916 6.41595 17.2958 6.67182 17.6149 6.99413C18.9604 8.35109 18.9604 10.5546 17.6149 11.9538C17.2958 12.276 16.9161 12.5317 16.4976 12.7063C16.0791 12.8808 15.6302 12.9707 15.1768 12.9707C14.7234 12.9707 14.2745 12.8808 13.856 12.7063C13.4375 12.5317 13.0578 12.276 12.7388 11.9538Z" fill="#1EAF37"/>
<path d="M5.88539 6.99433L8.32387 9.45305L5.88627 11.9118C5.56722 12.2341 5.18744 12.4899 4.76888 12.6646C4.35033 12.8392 3.90131 12.9291 3.44779 12.9291C2.99427 12.9291 2.54525 12.8392 2.1267 12.6646C1.70815 12.4899 1.32836 12.2341 1.00931 11.9118C-0.337088 10.5548 -0.337088 8.35129 1.00931 6.95209C2.31171 5.63825 4.54075 5.63825 5.88539 6.99433Z" fill="#AAE641"/>
<path d="M142.476 8.68996H138.903V17.38H135.96V8.68996H132.386V5.80708H142.476V8.68996ZM42.0825 12.8436H50.659C50.7449 12.4395 50.7874 12.0273 50.7857 11.6142C50.7857 8.22356 48.3886 5.51052 45.0261 5.51052C41.4524 5.51052 39.014 8.18132 39.014 11.6142C39.014 15.048 41.4102 17.7188 45.2356 17.7188C47.4224 17.7188 49.1454 16.8282 50.197 15.26L47.8421 13.8608C47.3379 14.5393 46.413 15.0057 45.2778 15.0057C43.7642 15.0057 42.5023 14.3695 42.0825 12.8436ZM42.0412 10.5124C42.3773 9.02876 43.4703 8.18044 45.0261 8.18044C46.2449 8.18044 47.506 8.85892 47.8421 10.5124H42.0412ZM59.4458 5.51052C57.8064 5.51052 56.5867 6.14676 55.7463 7.20628V5.84932H52.8036V22H55.7463V16.023C56.5867 17.0825 57.7641 17.7188 59.4458 17.7188C62.5144 17.7188 64.9951 15.048 64.9951 11.6142C65.0373 8.18132 62.5144 5.51052 59.4458 5.51052ZM58.8993 14.8359C57.0909 14.8359 55.7463 13.522 55.7463 11.572C55.7463 9.62188 57.0909 8.30804 58.8993 8.30804C60.7069 8.30804 62.0524 9.62188 62.0524 11.5728C62.0524 13.522 60.7491 14.8359 58.8993 14.8359ZM69.5773 12.8436H78.1537C78.2393 12.4394 78.2815 12.0273 78.2796 11.6142C78.2796 8.22356 75.8833 5.51052 72.5209 5.51052C68.9472 5.51052 66.5087 8.18132 66.5087 11.6142C66.5087 15.048 68.9049 17.7188 72.7303 17.7188C74.9171 17.7188 76.6401 16.8282 77.6917 15.26L75.3369 13.8608C74.8326 14.5393 73.9077 15.0057 72.7725 15.0057C71.2589 15.0057 69.997 14.3695 69.5773 12.8436ZM69.5359 10.5124C69.872 9.02876 70.965 8.18044 72.52 8.18044C73.7396 8.18044 75.0016 8.85892 75.3369 10.5124H69.5359ZM99.763 5.51052C98.0813 5.51052 96.9039 6.14676 96.0635 7.20628V5.84932H93.1208V22H96.0635V16.023C96.9039 17.0825 98.0813 17.7188 99.763 17.7188C102.832 17.7188 105.312 15.048 105.312 11.6142C105.312 8.18132 102.79 5.51052 99.763 5.51052ZM99.2165 14.8359C97.409 14.8359 96.0635 13.522 96.0635 11.572C96.0635 9.62188 97.409 8.30804 99.2165 8.30804C101.024 8.30804 102.37 9.62188 102.37 11.5728C102.37 13.522 101.024 14.8359 99.2165 14.8359ZM109.894 12.8436H118.471C118.555 12.4625 118.598 12.0384 118.598 11.6142C118.598 8.22356 116.201 5.51052 112.838 5.51052C109.264 5.51052 106.826 8.18132 106.826 11.6142C106.826 15.048 109.222 17.7188 113.048 17.7188C115.234 17.7188 116.957 16.8282 118.009 15.26L115.654 13.8608C115.15 14.5393 114.225 15.0057 113.09 15.0057C111.535 15.0057 110.273 14.3695 109.894 12.8436ZM110.525 4.61996C111.367 4.61996 112.039 3.94236 112.039 3.09404C112.039 2.2466 111.367 1.52588 110.525 1.52588C109.685 1.52588 108.97 2.2466 108.97 3.09404C108.97 3.94236 109.685 4.61996 110.525 4.61996ZM109.811 10.5124C110.147 9.02876 111.24 8.18044 112.796 8.18044C114.015 8.18044 115.277 8.85892 115.613 10.5124H109.811ZM114.814 4.61996C115.654 4.61996 116.327 3.94236 116.327 3.09404C116.327 2.2466 115.654 1.52588 114.814 1.52588C113.973 1.52588 113.258 2.2466 113.258 3.09404C113.3 3.94236 113.973 4.61996 114.814 4.61996ZM125.954 17.6765C128.183 17.6765 130.117 16.4885 131.083 14.6669L128.519 13.1832C128.057 14.116 127.09 14.7092 125.912 14.7092C124.147 14.7092 122.844 13.3953 122.844 11.572C122.844 9.74948 124.147 8.43564 125.912 8.43564C127.09 8.43564 128.057 9.02876 128.519 9.96156L131.042 8.47788C130.117 6.69764 128.183 5.51052 125.954 5.51052C122.507 5.51052 119.942 8.18132 119.942 11.6142C119.942 15.048 122.507 17.6765 125.954 17.6765ZM149.456 17.6765C152.819 17.6765 155.467 15.0057 155.467 11.572C155.467 8.13908 152.819 5.51052 149.456 5.51052C146.092 5.51052 143.444 8.18132 143.444 11.6142C143.444 15.048 146.092 17.6765 149.456 17.6765ZM149.456 14.7936C147.732 14.7936 146.386 13.4798 146.386 11.6142C146.386 9.74948 147.732 8.43564 149.456 8.43564C151.221 8.43564 152.567 9.74948 152.567 11.6142C152.567 13.4798 151.221 14.7936 149.456 14.7936ZM87.7809 17.38H91.1865L86.8147 11.5297L91.0185 5.84932H87.5292L84.2917 10.5124H83.2833V5.84932H80.3405V17.38H83.2833V12.8436H84.5021L87.7809 17.38ZM164.674 17.38H168.079L163.75 11.5297L167.953 5.84932H164.464L161.185 10.5547H160.176V5.84932H157.233V17.38H160.176V12.8436H161.395L164.674 17.38ZM37.0797 1.48364H25.1821V17.336H28.3361V4.49324H33.9698V17.38H37.1229V1.48364H37.0797Z" fill="#005A28"/>
</g>
<defs>
<clipPath id="clip0_408_67">
<rect width="168.08" height="22" fill="white"/>
</clipPath>
</defs>
</svg>
