<svg width="163" height="28" viewBox="0 0 163 28" fill="none" xmlns="http://www.w3.org/2000/svg">
<path d="M21.644 21.3312C21.644 20.1494 23.157 18.6857 26.3171 18.6857C26.5063 18.6857 26.6956 18.6857 26.8819 18.705C26.6396 20.9768 24.8215 22.5323 23.045 22.5323C22.1924 22.5323 21.644 22.1374 21.644 21.3312ZM15.513 8.91076H15.5516L14.5648 17.8794C13.4982 17.5634 12.4101 17.3249 11.3091 17.1659L15.513 8.91076ZM8.66455 16.9786C6.31931 16.9786 3.86014 17.5608 2.59145 18.9483C1.88385 17.6217 1.52597 16.1367 1.55159 14.6334C1.55159 10.6361 4.18166 6.92276 9.23324 4.56497L8.59021 3.21324C2.66869 5.87324 0 10.2615 0 14.6334C0 16.6977 0.492414 18.6886 1.79586 20.58C1.75917 20.7905 1.73986 21.0048 1.73986 21.2192C1.73986 22.8123 2.74303 23.9574 4.82469 23.9574C7.00097 23.9574 8.85379 22.4743 9.9709 19.5488H8.34303C7.53007 21.4992 6.20538 22.5149 4.82469 22.5149C3.74621 22.5149 3.2731 22.0273 3.2731 21.2211C3.2731 19.8327 4.97531 18.425 8.68483 18.425C10.6303 18.4308 12.5633 18.7349 14.4161 19.3258L14.1526 21.7821H15.6655L17.0848 8.55545C17.9557 8.372 18.8421 8.27931 19.7332 8.27545C23.0633 8.27545 23.9719 9.43986 23.9719 10.697C23.9719 12.3673 22.5912 13.5288 19.2794 13.9044L19.7719 9.38386L18.2579 9.43986L16.9332 21.784H18.4472L19.1086 15.5371C20.2367 15.2345 21.3973 15.0695 22.5651 15.0457C24.7974 15.0457 26.3123 15.9465 26.7661 17.2837C26.6153 17.2686 26.4638 17.2625 26.3123 17.2654C22.0157 17.2654 20.1069 19.4417 20.1069 21.3563C20.1069 23.044 21.3766 23.9825 23.0208 23.9825C25.4182 23.9825 28.0164 22.0679 28.3794 18.9348C29.4743 19.1887 30.5229 19.6135 31.4826 20.1938C28.8902 24.0018 23.6494 26.4967 17.3677 26.4967C14.2839 26.4967 10.4257 25.8401 7.8709 24.0954L7.07531 25.3545C9.59338 27.1552 13.6215 28 17.3706 28C27.5684 28 34.7586 22.0331 34.7586 14.6604C34.7586 6.91214 26.9437 1.32179 17.3909 1.32179C16.8039 1.32179 16.3877 1.34014 15.819 1.37779L15.9706 2.85986C16.4244 2.84152 16.9168 2.82124 17.3706 2.82124C25.9029 2.82124 33.207 7.92497 33.207 14.6604C33.2104 16.143 32.8728 17.6064 32.2203 18.9377C31.2548 18.3188 29.8548 17.7559 28.3601 17.4749C28.0386 15.6742 26.545 14.1352 23.6494 13.8388C24.2158 13.5297 24.6892 13.0746 25.0204 12.5208C25.3503 11.9685 25.5251 11.3374 25.5263 10.6941C25.5263 8.38648 23.8811 6.8291 19.7371 6.8291C18.9068 6.83103 18.0783 6.89959 17.2596 7.03572L17.4237 5.45421L15.8924 5.04193L14.5687 7.63531C12.4301 8.25131 10.3494 9.156 9.11931 9.84924L9.8 11.144C11.0433 10.5114 12.3263 9.95987 13.6408 9.49297L9.82028 17.0163C9.42248 16.997 9.04303 16.9786 8.66455 16.9786ZM14.589 3.56469C14.589 1.93297 12.7159 0.468276 10.64 0C10.4319 0.841614 10.3167 1.70349 10.2963 2.57021C10.2963 4.85945 11.4877 5.53434 12.6048 5.53434C13.7943 5.53434 14.589 4.74648 14.589 3.56469Z" fill="#63C634"/>
<path d="M47.0158 10.809C45.6119 10.809 44.8096 11.5071 44.6503 12.5441H42.641C42.9654 10.2316 44.5296 9.01508 47.0167 9.01508C49.725 9.01508 51.1897 10.3707 51.1897 13.1398V19.182H49.1824V16.7923C48.6813 18.2474 47.6183 19.3838 45.552 19.3838C43.6664 19.3838 42.4827 18.3864 42.4827 16.5915C42.4827 14.3187 44.5894 13.1031 49.1834 13.1031V12.9428C49.1834 11.5071 48.38 10.809 47.0158 10.809ZM46.0126 17.669C48.0788 17.669 49.1824 16.2545 49.1824 14.5398C45.8726 14.5398 44.5894 15.2967 44.5894 16.4872C44.5894 17.2509 45.1311 17.669 46.0126 17.669ZM52.9141 15.9156H54.9996C55.241 16.9468 55.9217 17.5908 57.4482 17.5908C59.2537 17.5908 59.7143 16.9526 59.7143 16.2343C59.7143 15.5555 59.1929 15.037 57.8083 15.037H56.1235V13.3435H57.5071C58.9303 13.3435 59.3927 12.8646 59.3927 12.1463C59.3927 11.4086 58.77 10.81 57.426 10.81C55.9217 10.81 55.38 11.5689 55.1995 12.3857H53.114C53.3148 10.3321 54.9195 9.01605 57.4646 9.01605C60.2733 9.01605 61.4985 10.3118 61.4985 11.8276C61.4985 12.8443 60.8767 13.7017 59.7336 14.0049C61.0167 14.2849 61.8191 15.1809 61.8191 16.2961C61.8191 17.9114 60.5359 19.3896 57.4472 19.3896C54.5188 19.3847 53.114 17.9683 52.9141 15.9156ZM64.3082 17.1312C63.6458 16.1145 63.4257 14.758 63.4257 13.0432C63.4257 8.21853 65.1916 6.1446 69.4023 5.64736C70.7685 5.48419 71.4897 5.32488 71.6307 4.82764H73.5163C73.1958 6.72102 71.788 7.14102 69.7257 7.39977C66.3145 7.83812 65.432 9.09426 65.3519 12.0661C66.0143 10.5107 67.5581 9.43026 69.4438 9.43026C72.293 9.43026 74.0387 11.6654 74.0387 14.3969C74.0387 17.1679 71.9116 19.3809 68.7225 19.3809C66.6756 19.3838 65.0922 18.3671 64.3101 17.1303L64.3082 17.1312ZM71.9309 14.3988C71.9309 12.5663 70.6082 11.23 68.7216 11.23C66.8552 11.23 65.5325 12.5653 65.5325 14.3998C65.5325 16.2738 66.8571 17.5908 68.7225 17.5908C70.6034 17.5908 71.9309 16.2767 71.9309 14.3988ZM75.5594 23.1725V21.3766C77.6642 21.3766 78.0658 20.9991 78.7079 19.2235L74.6585 9.21591H76.8058L79.7951 16.6533L82.7428 9.21591H84.6883L80.4371 19.7024C79.3538 22.3943 78.5708 23.1725 75.5613 23.1725H75.5594ZM85.8711 9.21495H87.8784V13.7007L92.2715 9.21495H94.6795L90.0247 13.9595L95.0599 19.1839H92.3516L87.8784 14.4983V19.1839H85.8711V9.21495ZM100.035 10.809C98.6294 10.809 97.8271 11.5071 97.6668 12.5441H95.6634C95.9839 10.2316 97.549 9.01508 100.037 9.01508C102.743 9.01508 104.208 10.3707 104.208 13.1398V19.182H102.202V16.7923C101.701 18.2474 100.638 19.3838 98.5715 19.3838C96.6858 19.3838 95.5021 18.3864 95.5021 16.5915C95.5021 14.3187 97.6089 13.1031 102.203 13.1031V12.9428C102.203 11.5071 101.399 10.809 100.035 10.809ZM99.0311 17.6681C101.097 17.6681 102.2 16.2536 102.2 14.5388C98.8911 14.5388 97.6069 15.2958 97.6069 16.4863C97.6069 17.25 98.1505 17.669 99.0301 17.669L99.0311 17.6681ZM111.969 9.21495H116.503C118.73 9.21495 119.954 10.1515 119.954 11.8064C119.954 12.8376 119.312 13.7201 118.028 14.0599C119.492 14.2994 120.395 15.0563 120.395 16.3916C120.395 17.7472 119.513 19.1829 116.765 19.1829H111.971V9.21495H111.969ZM117.888 12.1453C117.888 11.4472 117.445 10.9094 116.403 10.9094H113.941V13.3618H116.407C117.445 13.3618 117.888 12.8231 117.888 12.1453ZM113.941 14.9559V17.4885H116.648C117.853 17.4885 118.293 16.9159 118.293 16.1918C118.293 15.5545 117.853 14.9559 116.547 14.9559H113.941ZM122.365 9.21398H124.372V13.7007L128.765 9.21495H131.172L126.518 13.9595L131.554 19.1839H128.845L124.372 14.4983V19.1839H122.365V9.21398ZM132.436 23.1725V21.3766C134.543 21.3766 134.944 20.9991 135.587 19.2235L131.532 9.21591H133.679L136.669 16.6533L139.618 9.21591H141.563L137.311 19.7034C136.224 22.3943 135.441 23.1725 132.432 23.1725H132.436ZM150.071 15.4966H152.077C151.595 18.0292 149.85 19.3847 147.302 19.3847C144.19 19.3847 142.087 17.0936 142.087 14.1999C142.087 11.3294 144.193 9.01605 147.263 9.01605C149.913 9.01605 151.615 10.4711 151.995 12.8047H149.99C149.609 11.5283 148.747 10.81 147.263 10.81C145.418 10.81 144.193 12.1665 144.193 14.2009C144.193 16.2545 145.461 17.5898 147.263 17.5898C148.741 17.5898 149.703 16.8918 150.065 15.4947L150.071 15.4966ZM158.035 10.81C156.631 10.81 155.829 11.5081 155.667 12.545H153.661C153.982 10.2326 155.547 9.01605 158.035 9.01605C160.743 9.01605 162.207 10.3716 162.207 13.1407V19.1829H160.201V16.7923C159.7 18.2474 158.636 19.3838 156.57 19.3838C154.684 19.3838 153.501 18.3864 153.501 16.5915C153.501 14.3187 155.607 13.1031 160.201 13.1031V12.9428C160.196 11.5071 159.393 10.809 158.029 10.809L158.035 10.81ZM157.032 17.67C159.098 17.67 160.201 16.2545 160.201 14.5398C156.891 14.5398 155.607 15.2967 155.607 16.4872C155.602 17.25 156.143 17.6681 157.026 17.6681L157.032 17.67Z" fill="#124F2E"/>
</svg>
