<svg width="127" height="18" viewBox="0 0 127 18" fill="none" xmlns="http://www.w3.org/2000/svg">
<path d="M1.88509 17.4534H0C0.56811 11.7981 1.34281 6.27198 2.06585 0.616701H4.77729C6.40415 4.1803 8.00518 7.7439 9.60622 11.3075C9.70951 11.3333 9.83863 11.3333 9.94192 11.3591C11.6721 7.79555 13.4022 4.20612 15.1582 0.590876H17.818C18.4119 6.16868 19.0059 11.6948 19.6256 17.3759H16.0104C15.623 13.7607 15.2099 10.1713 14.8225 6.58186C14.745 6.53021 14.6676 6.47856 14.6159 6.45274C14.3835 6.78844 14.0995 7.07249 13.9187 7.43402C12.5759 10.2487 11.2589 13.0893 9.9161 15.904C9.78699 16.2139 9.52875 16.4463 9.29634 16.782C8.93482 16.8078 8.5733 16.8337 8.16012 16.8595C7.92772 16.4721 7.64366 16.1364 7.48872 15.7749C6.32668 13.0635 5.19046 10.3262 4.02842 7.61478C3.92512 7.35655 3.69271 7.12414 3.35701 6.94338C2.7889 10.4295 2.5565 13.9673 1.88509 17.4534ZM37.392 0.590876C36.7464 0.565053 36.1783 0.539233 35.5843 0.51341C34.5514 1.83039 33.5701 3.09573 32.5889 4.36106C31.6334 5.60057 30.7038 6.86591 29.7483 8.10542C28.7928 9.31911 27.9407 10.6619 26.8303 11.7465C26.7012 11.6948 26.5979 11.6432 26.4688 11.5916V0.616701H23.0085V17.2468C24.4287 17.6858 24.7644 17.6342 25.5391 16.6271C27.9923 13.4508 30.4197 10.2487 32.8729 7.04667C33.0795 6.76262 33.3894 6.53021 33.6476 6.2978C33.7251 6.34945 33.8025 6.40109 33.88 6.45274V11.8756V17.4018H37.4178V0.590876H37.392ZM99.2385 8.88012C99.2385 2.3985 93.8414 -1.52663 87.7472 0.565051C82.8666 2.24356 81.0848 7.38238 82.5825 12.3921C83.2281 14.5612 84.6226 16.1623 86.7142 17.1177C92.8085 19.9324 99.2643 15.6974 99.2385 8.88012ZM85.8879 9.13835C86.0428 7.25326 86.3011 5.47146 87.2565 3.87042C88.0312 2.57926 89.09 1.67545 90.7168 1.67545C92.3953 1.67545 93.5574 2.57926 94.2288 3.97371C95.804 7.35655 95.7523 10.7652 94.0738 14.0964C93.325 15.5425 92.0855 16.4205 90.3811 16.2914C88.4702 16.1364 87.334 14.8969 86.7659 13.1926C86.3269 11.9014 86.1719 10.507 85.8879 9.13835ZM105.927 11.8498C107.218 11.7465 108.302 11.7465 109.387 11.5657C112.176 11.1009 114.138 8.85429 114.19 6.16868C114.242 3.37978 112.512 1.15899 109.542 0.745817C107.347 0.435939 105.075 0.590874 102.854 0.565051C102.699 0.565051 102.57 0.719995 102.441 0.771641C102.105 2.42432 102.234 16.4721 102.595 17.3759H105.952V11.8498M105.978 2.37267C107.476 1.90786 108.845 2.32103 109.723 3.48308C110.704 4.74841 110.756 7.25326 109.826 8.62189C108.974 9.88722 107.631 10.3779 105.952 9.91305V2.37267H105.978ZM41.8077 0.616701C41.4204 2.01115 41.4978 16.4463 41.8852 17.4018H45.1906V11.824C46.4817 11.7207 47.5405 11.7207 48.5734 11.5657C51.4914 11.1009 53.5056 8.751 53.4798 5.98792C53.454 3.14737 51.5689 1.10734 48.5476 0.642526C48.0053 0.565056 47.463 0.513408 46.9207 0.487585C45.6037 0.461762 44.3126 0.461762 42.9956 0.487585C42.5824 0.513408 42.1692 0.590878 41.8077 0.616701ZM45.268 2.3985C46.7658 1.88203 48.1602 2.29521 49.0382 3.48308C50.0453 4.82588 50.0453 7.4082 49.0382 8.751C48.1344 9.93887 46.7658 10.3779 45.268 9.8614V2.3985ZM59.4191 0.590876C57.3016 6.16868 55.2358 11.6948 53.0666 17.4018H54.5127C56.0621 15.7749 57.4049 14.1997 58.9543 12.8311C60.4521 11.4883 62.1047 10.3004 64.1706 9.88722C63.086 10.8427 61.924 11.6174 60.7878 12.4695C59.6515 13.2959 58.5411 14.1739 57.7406 15.4909C61.3042 15.8524 67.1919 11.1267 68.0957 7.17579C67.1919 7.25326 66.3397 7.33073 65.3326 7.43402C64.4805 5.16158 63.6283 2.91496 62.7503 0.616701H59.4191M60.4004 4.69676C60.8394 5.93627 61.2526 7.20161 61.6916 8.46695C60.3746 9.44823 59.1609 10.352 57.9214 11.2817C57.8439 11.23 57.7923 11.2042 57.7148 11.1526C58.4637 9.00923 59.2384 6.86591 59.9872 4.72258C60.1422 4.69676 60.2713 4.69676 60.4004 4.69676ZM73.1054 17.3759H76.7981V2.45015H79.2772H81.6271C81.5496 1.67545 81.5238 1.15899 81.4721 0.616701H68.3798V2.3985H73.1312V17.3759H73.1054ZM120.827 2.3985H126.404C126.353 1.7271 126.327 1.21064 126.301 0.642526H117.418C117.031 2.26939 117.16 16.5238 117.547 17.4534H120.827V2.3985ZM63.6283 14.3805C64.0931 15.5167 64.5063 16.498 64.8936 17.4276H68.8446C68.1474 15.465 67.5018 13.6832 66.7787 11.7465C65.6425 12.702 64.6871 13.5025 63.6283 14.3805Z" fill="#E7173B"/>
</svg>
