<svg width="139" height="26" viewBox="0 0 139 26" fill="none" xmlns="http://www.w3.org/2000/svg">
<path fill-rule="evenodd" clip-rule="evenodd" d="M65.1547 15.4115H61.1838L63.1696 10.3129L65.1547 15.4115ZM66.493 18.8468L67.379 21.125H71.7476L65.1781 4.87502H61.228L54.6572 21.125H58.9582L59.8461 18.8468H66.493ZM47.6937 21.1263V11.4686L43.4291 16.5698L39.1664 11.4686V21.1263H34.8952V4.87632H39.1079L43.4291 10.4637L47.7516 4.87632H51.9642V21.1263H47.6937ZM74.4633 4.87632V21.1263H78.7358V8.65022H84.7086V4.87632H74.4633ZM98.3417 14.7602V21.1263H102.614V4.87632H98.3417V10.9408H91.9971V4.87632H87.7259V21.1263H91.9971V14.7602H98.3417ZM129.469 21.1263V8.65022H124.478V4.87632H138.754V8.65022H133.741V21.1263H129.469ZM117.202 11.8651V21.1263H121.476V4.87632H117.787L111.103 14.04V4.87632H106.83V21.1263H110.403L117.202 11.8651ZM0 7.77272C0 5.70182 0.81705 3.75182 2.30295 2.28022C3.03157 1.55485 3.89596 0.980124 4.84674 0.588882C5.79752 0.197639 6.81607 -0.00245728 7.8442 2.27744e-05H25.9577V3.94942H7.8442C6.82333 3.94847 5.84381 4.35267 5.1207 5.07327C4.7616 5.42524 4.47623 5.84523 4.28126 6.30872C4.08629 6.77221 3.98563 7.2699 3.98515 7.77272L3.9624 14.4021C3.7778 16.1629 2.43815 17.5832 0.70525 17.8451L0 17.9524V7.77272ZM0 26V22.05H18.1135C18.6188 22.0509 19.1193 21.9519 19.5862 21.7588C20.0532 21.5657 20.4774 21.2823 20.8344 20.9248C21.1946 20.574 21.4808 20.1545 21.676 19.6912C21.8713 19.2279 21.9717 18.7301 21.9713 18.2273L21.9745 11.9353C21.9745 10.0614 23.3837 8.43637 25.2531 8.15362L25.9577 8.04767V18.2273C25.9577 20.2982 25.1407 22.2476 23.6541 23.7185C22.926 24.4445 22.0619 25.0197 21.1111 25.4112C20.1604 25.8027 19.1417 26.0028 18.1135 26H0ZM15.3705 17.9524V12.9194L12.9785 15.6735L10.5859 12.9194V17.9524H7.4165V8.04767H10.4188L12.9785 11.232L15.5376 8.04767H18.5412V17.9524H15.3705Z" fill="#E6000E"/>
</svg>
