<svg width="126" height="24" viewBox="0 0 126 24" fill="none" xmlns="http://www.w3.org/2000/svg">
<path d="M58.5749 20.25H61.0499L64.4999 7.42505V20.25H67.2749V3.30005H63.4499L59.9999 15.75L56.5499 3.30005H52.6499V20.25H55.0499V7.42505L58.5749 20.25ZM78.8999 11.85C78.8999 8.85005 77.3999 7.72505 74.3249 7.72505C72.3749 7.72505 70.8749 8.32505 69.9749 8.85005V11.25C70.7249 10.65 72.4499 10.05 73.9499 10.05C75.3749 10.05 75.9749 10.575 75.9749 11.85V12.525H75.5249C71.0999 12.525 69.0749 14.025 69.0749 16.5C69.0749 18.975 70.5749 20.4 72.8249 20.4C74.5499 20.4 75.2999 19.875 75.8249 19.275H75.9749C75.9749 19.575 76.1249 20.025 76.1999 20.25H79.0499C78.9749 19.275 78.8999 18.225 78.8999 17.25V11.85ZM75.9749 17.325C75.5999 17.85 74.9249 18.3 73.8749 18.3C72.6749 18.3 72.0749 17.55 72.0749 16.5C72.0749 15.075 73.0499 14.55 75.5999 14.55H76.0499V17.325H75.9749ZM83.9249 7.95005H81.2249V23.775H84.1499V18.825C84.8999 19.95 85.9499 20.475 87.2249 20.475C90.0749 20.475 92.0249 18.225 92.0249 14.1C92.0249 9.97505 90.1499 7.72505 87.3749 7.72505C86.0249 7.72505 84.8999 8.32505 84.0749 9.52505L83.9249 7.95005ZM86.3999 18.225C84.8999 18.225 84.0749 16.95 84.0749 14.175C84.0749 11.325 84.8999 10.05 86.5499 10.05C88.1249 10.05 88.9499 11.325 88.9499 14.1C88.9499 16.95 88.1249 18.225 86.3999 18.225ZM101.1 20.25H104.4L99.7499 13.65L103.875 7.95005H100.95L96.8249 13.65V7.95005H93.8999V20.25H96.8249V14.25L101.1 20.25ZM114.15 19.425V17.025C113.25 17.625 111.75 18.15 110.325 18.15C108.225 18.15 107.4 17.175 107.25 15.075H114.225V13.5C114.225 9.22505 112.35 7.65005 109.425 7.65005C105.9 7.65005 104.175 10.35 104.175 14.1C104.175 18.375 106.275 20.475 109.95 20.475C111.975 20.475 113.325 20.025 114.15 19.425ZM109.425 10.05C110.85 10.05 111.3 11.25 111.3 12.75V12.975H107.25C107.325 11.025 108.075 10.05 109.425 10.05ZM124.65 10.275V7.95005H114.9V10.275H118.35V20.25H121.275V10.275H124.65Z" fill="black"/>
<path d="M35.325 23.25C41.55 23.25 46.575 18.225 46.575 12C46.575 5.775 41.55 0.75 35.325 0.75C29.1 0.75 24.075 5.775 24.075 12C24 18.225 29.1 23.25 35.325 23.25Z" fill="#FED42B"/>
<path d="M11.25 23.25C17.4632 23.25 22.5 18.2132 22.5 12C22.5 5.7868 17.4632 0.75 11.25 0.75C5.0368 0.75 0 5.7868 0 12C0 18.2132 5.0368 23.25 11.25 23.25Z" fill="#FC3F1D"/>
<path d="M12.9001 7.05H11.7751C9.8251 7.05 8.8501 8.025 8.8501 9.525C8.8501 11.175 9.5251 12 10.9501 12.975L12.0751 13.8L8.8501 18.825H6.2251L9.3001 14.25C7.5001 12.975 6.5251 11.775 6.5251 9.675C6.5251 7.05 8.3251 5.25 11.7751 5.25H15.2251V18.75H12.9751V7.05H12.9001Z" fill="white"/>
<mask id="mask0_408_95" style="mask-type:luminance" maskUnits="userSpaceOnUse" x="24" y="0" width="23" height="24">
<path d="M35.325 23.25C41.55 23.25 46.575 18.225 46.575 12C46.575 5.775 41.55 0.75 35.325 0.75C29.1 0.75 24.075 5.775 24.075 12C24 18.225 29.1 23.25 35.325 23.25Z" fill="white"/>
</mask>
<g mask="url(#mask0_408_95)">
<path d="M29.775 6.89995L19.875 19.875L22.5 22.875L29.85 13.125L29.1 18.45L33.225 19.875L38.25 11.85C38.025 13.35 37.65 16.8 40.95 17.85C46.125 19.425 50.625 10.125 52.725 5.39995L49.725 3.82495C47.4 8.69995 43.8 14.1 42.375 13.725C40.95 13.35 42.225 8.77495 43.05 5.84995V5.77495L38.475 4.19995L33 13.125L33.75 8.24995L29.775 6.89995Z" fill="black"/>
</g>
</svg>
