<svg width="40" height="49" viewBox="0 0 40 49" fill="none" xmlns="http://www.w3.org/2000/svg">
<path d="M39.785 42.275L34.1627 29.5332L21.8086 36.3612L26.9337 47.9879C27.0443 48.2365 27.2246 48.4476 27.4527 48.5958C27.6808 48.744 27.9471 48.8229 28.2191 48.8228C28.6833 48.7349 29.2875 48.4891 29.5101 47.9728L32.0273 42.1349L38.0479 44.1784C38.5779 44.3556 39.1616 44.2085 39.5379 43.7938C39.7225 43.5922 39.8442 43.341 39.888 43.0712C39.9319 42.8014 39.8961 42.5247 39.785 42.275Z" fill="#FF4D4D"/>
<path d="M5.83731 29.5332L0.21503 42.275C0.103882 42.5247 0.068069 42.8015 0.111985 43.0713C0.155901 43.3411 0.277636 43.5922 0.462248 43.7938C0.838561 44.2085 1.42084 44.3555 1.95231 44.1784L7.97284 42.1349L10.4901 47.9728C10.7126 48.4892 11.266 48.6979 11.7811 48.8228C12.0531 48.8227 12.3192 48.7438 12.5473 48.5956C12.7754 48.4474 12.9557 48.2363 13.0665 47.9879L18.1916 36.3612L5.83731 29.5332Z" fill="#FF8066"/>
<path d="M20 0.822754C9.92 0.822754 1.71875 9.11775 1.71875 19.1978C1.71875 29.2778 9.92 37.479 20 37.479C30.08 37.479 38.2812 29.2778 38.2812 19.1978C38.2812 9.11775 30.08 0.822754 20 0.822754Z" fill="#FFCC00"/>
<path d="M38.2812 19.1978C38.2812 9.11775 30.08 0.822754 20 0.822754V37.479C30.08 37.479 38.2812 29.2778 38.2812 19.1978Z" fill="#FF9E22"/>
<path d="M29.3617 16.1545C29.2802 15.9052 29.1307 15.6836 28.9301 15.5147C28.7294 15.3458 28.4855 15.2364 28.226 15.1987L23.414 14.4997L21.2606 10.1382C21.0244 9.65752 20.5122 9.41724 20 9.41724C19.4877 9.41724 18.9755 9.65752 18.7393 10.1382L16.586 14.4997L11.774 15.1987C11.5144 15.2364 11.2705 15.3458 11.0699 15.5147C10.8692 15.6836 10.7197 15.9052 10.6383 16.1545C10.5573 16.4041 10.5477 16.6714 10.6106 16.9262C10.6734 17.181 10.8062 17.4131 10.994 17.5965L14.4766 20.9926L13.6553 25.7868C13.6111 26.0455 13.64 26.3114 13.7387 26.5545C13.8375 26.7976 14.0022 27.0083 14.2143 27.1629C14.651 27.476 15.2237 27.5186 15.6961 27.2686L20 25.0053L24.3038 27.2685C24.7766 27.5175 25.3489 27.4774 25.7857 27.1628C25.9977 27.0083 26.1624 26.7975 26.2612 26.5544C26.36 26.3113 26.3888 26.0454 26.3446 25.7867L25.5233 20.9925L29.006 17.5964C29.1937 17.413 29.3265 17.1809 29.3894 16.9261C29.4522 16.6714 29.4426 16.4041 29.3617 16.1545Z" fill="#FFF5F5"/>
<path d="M25.7857 27.1629C25.9978 27.0083 26.1625 26.7976 26.2612 26.5545C26.36 26.3114 26.3889 26.0455 26.3446 25.7868L25.5234 20.9926L29.006 17.5965C29.1938 17.4131 29.3266 17.181 29.3894 16.9262C29.4523 16.6714 29.4427 16.4041 29.3617 16.1545C29.2803 15.9052 29.1308 15.6836 28.9301 15.5147C28.7294 15.3458 28.4856 15.2364 28.226 15.1987L23.414 14.4997L21.2607 10.1382C21.0244 9.65752 20.5123 9.41724 20 9.41724V25.0054L24.3039 27.2686C24.5362 27.3908 24.798 27.4457 25.0599 27.427C25.3217 27.4083 25.5731 27.3168 25.7857 27.1629Z" fill="#ECE6F2"/>
</svg>
