<svg width="83" height="56" viewBox="0 0 83 56" fill="none" xmlns="http://www.w3.org/2000/svg">
<path d="M32.3706 4.9317C30.7029 5.35694 29.0912 5.88892 27.5635 6.50841C28.4192 6.92139 29.3677 7.30113 30.3879 7.63187C31.1439 6.5329 31.8334 5.62118 32.3706 4.9317ZM57.0414 6.61515C55.3894 5.92567 53.643 5.35169 51.8248 4.89671C52.3742 5.57743 53.118 6.5644 53.9509 7.77887C55.0744 7.43938 56.1104 7.04739 57.0396 6.61515H57.0414ZM53.1057 8.02911C51.8878 6.27041 50.8885 5.0682 50.4791 4.58872C47.9801 4.06023 45.3622 3.76274 42.6621 3.72949V7.86286C44.0778 7.89961 45.3675 8.36335 46.3579 9.18057C48.7746 8.97408 51.0618 8.58209 53.1057 8.02911ZM31.2314 7.88736C33.3331 8.49809 35.72 8.93558 38.2609 9.16307C39.2637 7.85061 41.0241 7.85061 41.7223 7.85061H41.8378V3.72949C39.0222 3.75049 36.2993 4.06023 33.7023 4.62196C33.1861 5.24494 32.2866 6.37716 31.2332 7.88911L31.2314 7.88736ZM37.2687 13.1739C37.3632 12.558 37.484 11.7127 37.5662 11.0355C37.6082 10.6645 37.6852 10.3285 37.7937 10.0363C35.2335 9.7808 32.8256 9.31357 30.6942 8.67834C29.807 10.0083 28.8445 11.5815 27.924 13.3279C30.6819 13.2912 35.3525 13.2072 37.2687 13.1739ZM55.4384 44.2285C54.0874 44.2827 52.7785 44.323 51.5518 44.3405C48.8884 44.3895 45.833 44.4402 42.6656 44.456V45.9347C46.6169 45.9767 50.3723 46.4877 53.4942 47.3714C54.1172 46.4387 54.7822 45.3887 55.4384 44.2285ZM47.1629 10.0188C47.8156 10.8693 48.2251 11.9192 48.3686 13.1162C49.0704 13.1372 50.1203 13.1652 51.263 13.1984C52.7242 13.2404 54.4794 13.2859 56.3256 13.3437C55.4332 11.634 54.5039 10.1098 53.6412 8.81833C51.676 9.38007 49.4833 9.78955 47.1612 10.0205L47.1629 10.0188ZM57.2776 13.3717C61.04 13.4872 65.0334 13.6202 67.5848 13.7549C65.0579 11.067 61.8397 8.79033 58.1193 7.08939C57.0449 7.65112 55.8269 8.14285 54.4812 8.56809C55.3894 9.9348 56.3606 11.5587 57.2776 13.3717ZM51.8055 51.1093C53.5362 50.6805 55.1952 50.1345 56.7824 49.4906C55.8986 49.0688 54.9029 48.6943 53.825 48.3671C53.048 49.4993 52.3462 50.4285 51.8055 51.1093ZM26.7585 13.3472C26.832 13.3472 26.9108 13.3437 26.986 13.3437C27.931 11.4887 28.9355 9.82455 29.8682 8.4176C28.617 7.99586 27.4813 7.50937 26.4908 6.96864C25.3551 7.47613 24.2649 8.03436 23.2289 8.64509C23.9674 8.88133 24.6289 9.27682 25.1696 9.8263C26.0323 10.6978 26.5853 11.949 26.7603 13.3489L26.7585 13.3472ZM54.3289 47.6199C55.6256 48.0294 56.7981 48.5071 57.8096 49.0496C60.9735 47.6409 63.7891 45.8209 66.1358 43.6842C63.0174 43.875 59.6225 44.0675 56.4184 44.1917C55.7166 45.4552 55.0062 46.6032 54.3289 47.6199ZM30.2234 44.295C29.7282 44.274 29.2452 44.253 28.7657 44.2407C29.4395 45.4132 30.1114 46.4877 30.7484 47.4291C33.9368 46.4999 37.7937 45.9714 41.8361 45.9347V44.4647C41.3811 44.4682 40.9226 44.4682 40.4694 44.4682C36.7105 44.4682 33.3628 44.4105 30.2234 44.295ZM42.6621 46.8061V52.2695C45.3622 52.2362 47.9766 51.9387 50.4756 51.4155C50.9585 50.8415 51.879 49.7058 52.978 48.1204C49.9873 47.3101 46.4244 46.8376 42.6621 46.8061ZM27.791 44.204C23.2447 44.022 19.6678 43.8575 18.3308 43.791C20.66 45.8927 23.4477 47.6811 26.5731 49.0601C27.5478 48.5438 28.6747 48.0819 29.9189 47.6759C29.233 46.6556 28.5032 45.4919 27.7928 44.2022L27.791 44.204ZM27.6143 49.5116C29.1297 50.1275 30.7152 50.6473 32.3636 51.0638C31.8439 50.4023 31.1702 49.5116 30.4194 48.4248C29.3992 48.7468 28.4577 49.1108 27.616 49.5116H27.6143ZM33.7006 51.3823C36.2975 51.9405 39.0204 52.2502 41.8361 52.2747V46.8079C37.9792 46.8376 34.3113 47.3276 31.2594 48.1781C32.3374 49.7181 33.2368 50.8258 33.7006 51.3823Z" fill="#009D3A"/>
<path d="M42.2526 1.30021C54.2747 1.30021 64.8286 6.35405 70.7592 13.9366C71.3297 13.9663 71.8826 13.9908 72.4111 14.0153C66.3826 5.64007 55.1252 0 42.2526 0C29.471 0 18.2766 5.56658 12.2183 13.8351C12.8132 13.8106 13.3697 13.7931 13.8702 13.7738C19.8218 6.28755 30.3144 1.30196 42.2526 1.30196V1.30021ZM42.2526 54.698C31.0564 54.698 21.1342 50.3127 15.0304 43.5894C14.4144 43.5474 13.816 43.5106 13.2332 43.4739C19.4823 51.0179 30.1517 56 42.2526 56C54.4182 56 65.1436 50.9584 71.3752 43.3426C70.8047 43.3794 70.2062 43.4249 69.5867 43.4616C63.5004 50.2549 53.5187 54.698 42.2526 54.698Z" fill="#009D3A"/>
<path d="M23.311 12.3232C22.856 11.6949 22.1788 11.373 21.3738 11.4097C20.6266 11.4465 19.8794 11.4885 19.1322 11.534C18.9747 11.5462 18.8469 11.6582 18.8189 11.8139C17.167 21.0362 15.9578 29.3519 15.1195 37.2232C15.0198 38.1156 15.2473 38.9573 15.7478 39.6066C16.243 40.2506 16.9412 40.6355 17.7094 40.681C18.4619 40.7353 19.2092 40.7755 19.9599 40.8175H19.9756C20.1454 40.8175 20.2941 40.6845 20.3099 40.5078C21.0991 32.6278 22.2418 24.1948 23.7905 14.7381C23.9393 13.8089 23.7695 12.9567 23.311 12.3232ZM81.9849 18.6982C81.572 18.14 80.697 17.587 79.899 17.475C78.5288 17.2808 74.7542 17.0463 72.2185 17.0078C70.6943 17.0078 69.3976 18.2432 69.1963 19.8987C69.1508 20.3239 68.1726 26.4942 67.9416 28.6817C67.7386 30.5891 69.1106 31.5603 70.5595 31.5638C70.5595 31.5638 73.9947 31.5551 75.3334 31.5271C75.1759 32.4231 74.9449 33.7373 74.8172 34.4267C73.9999 34.4757 73.1827 34.5142 72.369 34.551C72.369 34.551 72.411 34.278 72.411 34.1345C72.411 33.1353 71.6918 32.3583 70.7713 32.3583L67.4796 32.4615C67.3151 32.4703 67.1734 32.598 67.1542 32.7678C66.9057 34.2675 66.6537 35.7654 66.3894 37.2774C66.2284 38.1734 66.3982 38.9993 66.8514 39.6066C67.2767 40.1841 67.9259 40.5025 68.6766 40.5025C68.7256 40.5025 73.0165 40.2838 76.6336 39.8708C78.0546 39.7133 79.507 38.3099 79.934 36.6824C80.4835 34.6052 80.879 32.668 81.3217 28.9057C81.4407 27.9344 81.285 27.308 80.7722 26.6797C80.2857 26.09 79.591 25.7663 78.8105 25.7663H73.9089C73.9702 25.3953 74.3464 23.1728 74.4094 22.7389C75.0447 22.7546 76.8121 22.8001 76.8121 22.8001C76.8121 22.8001 76.7631 22.9698 76.7753 23.2253C76.8208 24.1966 77.6013 24.9963 78.513 25.005C79.549 25.0138 80.5867 25.0295 81.6385 25.0418C81.8362 25.0383 81.9569 24.914 81.9849 24.7355C82.1827 23.4633 82.3769 22.1421 82.5624 20.8034C82.6814 19.8777 82.3717 19.2092 81.9849 18.693V18.6982ZM67.9434 16.936C67.8856 16.866 67.7911 16.817 67.7001 16.8118L65.1435 16.7085C63.6613 16.7085 62.3803 17.9808 62.1703 19.6659C61.5666 24.543 60.8491 29.5689 59.9776 35.0165L57.5872 35.0865C58.4289 29.7054 59.1359 24.7408 59.7344 19.9267C59.8499 19.0132 59.6434 18.1505 59.1517 17.4978C58.6599 16.845 57.9669 16.474 57.1865 16.4495C56.4305 16.4338 55.671 16.4076 54.9238 16.3953C54.7418 16.3918 54.6018 16.5283 54.5773 16.7015C53.8178 22.9786 52.8921 29.6844 51.6584 37.8164C51.5219 38.7159 51.7004 39.5628 52.1589 40.2156C52.6209 40.8473 53.2911 41.2025 54.0453 41.2025L54.1328 41.199C56.7105 41.1115 59.3074 41.0013 61.8676 40.8648C63.341 40.7825 64.734 39.3983 65.0227 37.7306C66.3072 30.4089 67.2854 23.7013 68.0256 17.2143C68.0379 17.1075 68.0046 17.0113 67.9469 16.9378L67.9434 16.936ZM11.8296 25.0138L15.0513 24.9928C15.2245 24.984 15.3645 24.8598 15.3908 24.6865C15.6183 23.1921 15.8615 21.6924 16.11 20.1927C16.2587 19.267 16.0732 18.4095 15.5938 17.7848C15.1528 17.181 14.4668 16.8678 13.6321 16.8678C11.6669 16.8678 8.31749 17.0078 5.70307 17.2685C4.23662 17.4208 2.37818 18.805 2.08593 20.4272C1.01672 26.3122 0 34.397 0 36.3709C0 36.8452 0.0699978 38.0386 0.698228 38.7999C1.21796 39.4351 2.06144 39.6503 2.80866 39.7833C4.99259 40.1631 8.92472 40.4815 10.6099 40.4815H10.7429C12.4071 40.457 13.3363 39.5768 13.6583 37.6939C14.0748 35.216 14.8675 28.4769 14.9393 27.9397C15.0268 27.2922 14.9148 26.783 14.626 26.4242C14.3128 26.0602 13.8298 25.8713 13.1683 25.8713L8.076 25.88C7.9115 25.88 7.76276 26.0078 7.73301 26.1862C7.73301 26.1862 7.40227 28.3124 7.26227 29.3081C7.19228 29.8489 7.34452 30.4106 7.69626 30.8236C7.99725 31.2033 8.42249 31.4186 8.85997 31.4396L9.10847 31.4431C9.05072 31.7896 8.68323 33.8265 8.54323 34.6437C7.96925 34.6105 6.01631 34.4915 5.67332 34.4792C5.87982 32.4598 7.02428 24.4765 7.32527 22.7931C7.85026 22.7844 9.77345 22.7634 10.1584 22.7599C10.1252 22.9908 10.1129 23.1938 10.1129 23.1938C10.1339 24.1966 10.8969 25.0155 11.8349 25.0155L11.8296 25.0138ZM30.2111 35.272C29.3518 35.251 28.4926 35.2352 27.6386 35.2177C27.8906 33.025 29.0841 24.1668 29.3606 22.3294C30.2198 22.3206 31.0825 22.3084 31.9418 22.3084C31.6075 24.592 30.4386 33.3348 30.2111 35.272ZM37.2231 17.2703C36.7524 16.6228 36.0664 16.2623 35.2649 16.2623C32.6837 16.2868 30.0623 16.3288 27.4846 16.3866C25.9727 16.4286 24.5815 17.8163 24.3172 19.5452C23.3268 26.0375 22.5463 31.9348 21.9058 37.5801C21.8148 38.4481 22.0301 39.2933 22.5218 39.9548C23.0223 40.6233 23.731 41.0083 24.5167 41.045C27.1312 41.1605 29.7281 41.248 32.2427 41.3058L32.297 41.3093C33.7547 41.3093 35.0724 39.9636 35.2877 38.2416C36.0804 31.9191 36.9431 25.6123 37.7568 19.7534C37.8933 18.8155 37.6991 17.937 37.2248 17.272L37.2231 17.2703ZM52.1221 17.3368C51.6356 16.6753 50.9409 16.3131 50.1569 16.3008C48.4962 16.2763 46.8443 16.2553 45.1853 16.2431C45.2518 15.7566 45.4251 14.4144 45.4251 14.4144C45.5441 13.4851 45.3463 12.6014 44.8669 11.9329C44.3961 11.2715 43.6979 10.9005 42.9227 10.897H40.6845C40.52 10.897 40.3747 11.0212 40.3537 11.1945C39.9618 14.1064 37.5293 31.8998 36.7611 37.9214C36.6456 38.8209 36.8399 39.6888 37.3106 40.3503C37.7971 41.031 38.5041 41.4038 39.2968 41.4125C39.9285 41.4125 45.1066 41.4003 47.0158 41.3705C48.498 41.346 49.8647 39.9618 50.1219 38.2119C51.1789 31.1123 51.9961 25.2693 52.6944 19.8094C52.8134 18.889 52.6209 18.0123 52.1239 17.3403L52.1221 17.3368ZM45.1766 35.3542C44.3226 35.363 43.4669 35.3665 42.6077 35.3665C42.6077 35.3665 44.2141 23.6173 44.3874 22.2804C45.2256 22.2839 46.972 22.2891 46.972 22.2891C46.678 24.557 45.4356 33.4975 45.1748 35.356L45.1766 35.3542Z" fill="#C54200"/>
<path d="M23.1238 14.619C21.5908 23.9689 20.4603 32.3022 19.6711 40.0982C19.0271 40.0614 18.3867 40.0282 17.7514 39.9914C17.1739 39.9494 16.6525 39.6659 16.278 39.1742C15.886 38.6702 15.7127 38.0087 15.7862 37.307C16.6122 29.5267 17.8092 21.3125 19.4366 12.2145C20.0893 12.1778 21.5016 12.1113 21.5016 12.1113C22.0265 12.1113 22.4675 12.33 22.7738 12.7518C23.1203 13.2225 23.2445 13.884 23.1255 14.619H23.1238ZM81.8729 20.714C81.7032 21.9372 81.5264 23.1499 81.3532 24.3242C80.403 24.3119 79.4615 24.2997 78.5165 24.2909C77.967 24.2822 77.4998 23.7904 77.4718 23.2007C77.4631 22.9907 77.6048 22.548 77.6048 22.548C77.6293 22.4447 77.6171 22.3257 77.5471 22.2382C77.4858 22.1385 77.3826 22.0895 77.2741 22.086C77.2741 22.086 74.8504 22.0247 74.1154 22.0072C73.9299 21.9985 73.7847 22.1402 73.7637 22.3205C73.7147 22.6757 73.2107 25.6576 73.1477 26.0706C73.1319 26.1738 73.1599 26.2858 73.2299 26.3646C73.2964 26.4468 73.3909 26.4888 73.4907 26.4888H78.8053C79.3793 26.4888 79.8867 26.7233 80.235 27.1503C80.5745 27.5598 80.7355 27.9465 80.627 28.818C80.1895 32.5349 79.7922 34.4423 79.2515 36.4863C78.9085 37.804 77.6661 39.0184 76.5513 39.1462C72.95 39.5557 68.7833 39.7744 68.7833 39.7744C68.2006 39.8042 67.7141 39.5924 67.3956 39.1637C67.0614 38.721 66.9406 38.098 67.0649 37.412C67.3134 35.991 67.5479 34.5911 67.7789 33.1824C68.7623 33.1491 69.7493 33.1159 70.7608 33.0791C71.2893 33.0791 71.6987 33.5499 71.7022 34.1413C71.7022 34.3723 71.6025 34.8886 71.6025 34.8886C71.5937 34.9953 71.6235 35.1073 71.6935 35.1896C71.76 35.2631 71.8667 35.3138 71.97 35.3051C73.0182 35.2508 74.0629 35.1983 75.1216 35.1406C75.2791 35.1318 75.4156 35.0076 75.4436 34.8466C75.5626 34.2113 75.9354 32.1744 76.0911 31.2172C76.1069 31.1052 76.0789 30.9949 76.0089 30.9197C75.9389 30.8375 75.8391 30.792 75.7324 30.7955C74.7996 30.8252 70.549 30.841 70.549 30.841C69.3591 30.841 68.5016 29.994 68.6293 28.727C68.8481 26.5711 69.8316 20.4218 69.8805 19.9808C70.0328 18.6998 71.032 17.7304 72.2097 17.7304C75.6414 17.7969 78.4045 18.0104 79.8045 18.1923C80.375 18.2658 81.0854 18.6876 81.4022 19.1216C81.7697 19.6046 81.9552 20.0875 81.8729 20.7158V20.714ZM64.3595 37.5957C64.1285 38.9467 62.9893 40.0894 61.8273 40.1559C59.2759 40.2924 56.6825 40.4044 54.1083 40.4866L54.0418 40.4901C53.4888 40.4901 53.0251 40.2417 52.6961 39.7884C52.3443 39.2967 52.2131 38.6317 52.3251 37.9212C53.5343 29.9222 54.4565 23.2864 55.2073 17.0951C55.86 17.1074 56.5075 17.1249 57.1654 17.1371C57.7394 17.1581 58.2592 17.4311 58.6144 17.9176C58.9941 18.4216 59.1551 19.0988 59.0694 19.825C58.4499 24.7564 57.7272 29.8435 56.8592 35.3821C56.8382 35.4853 56.868 35.5921 56.9327 35.6673C56.9992 35.746 57.0972 35.7863 57.1934 35.7863C58.2259 35.7618 59.2549 35.732 60.2733 35.6988C60.4343 35.69 60.5708 35.5658 60.5988 35.4013C61.4948 29.8382 62.2263 24.7179 62.837 19.7463C63.0015 18.4076 63.9972 17.4049 65.1417 17.4049L67.3099 17.4959C66.5784 23.8517 65.6142 30.4297 64.3595 37.5957ZM7.0225 22.0807C6.86501 22.0842 6.73376 22.1962 6.69701 22.3537C6.49927 23.1797 5.00307 33.5289 4.94532 34.7958C4.93657 34.9936 5.08181 35.1668 5.27081 35.1721C5.7118 35.1966 8.15297 35.3418 8.8022 35.3751C8.97894 35.3786 9.13294 35.2561 9.16619 35.0811C9.33593 34.0784 9.77692 31.6319 9.84692 31.1489C9.86792 31.0457 9.83817 30.9459 9.77342 30.8689C9.71217 30.7902 9.62117 30.7412 9.52143 30.7412L8.87395 30.7255C8.6377 30.7097 8.39446 30.5855 8.21772 30.3615C7.99897 30.1007 7.89923 29.7455 7.94473 29.4112C8.08122 28.44 8.21772 27.5563 8.36646 26.6026L13.1736 26.5938C13.6163 26.5938 13.9295 26.6971 14.094 26.8913C14.2515 27.0891 14.304 27.4041 14.2393 27.8415C14.1728 28.3945 13.3836 35.1143 12.9723 37.5712C12.7116 39.1077 12.0641 39.7429 10.7306 39.7552H10.6116C8.95619 39.7552 5.07831 39.4419 2.93113 39.0744C2.26615 38.9589 1.60992 38.7892 1.22493 38.3307C0.836447 37.8635 0.699951 37.013 0.699951 36.369C0.699951 34.6103 1.62917 26.8336 2.76839 20.56C3.00813 19.2598 4.58133 18.1153 5.77479 17.9911C8.35946 17.7269 11.6844 17.5904 13.6338 17.5904C14.059 17.5904 14.654 17.6971 15.0583 18.2308C15.4047 18.6981 15.5412 19.3508 15.4257 20.077C15.1947 21.477 14.9673 22.8769 14.752 24.2682L11.8244 24.2892C11.2749 24.2892 10.8164 23.7887 10.8006 23.1832C10.8094 23.0834 10.9774 22.0475 10.9774 22.0475C10.9774 22.0475 7.62799 22.0597 7.026 22.0807H7.0225ZM32.3337 21.6065C31.2435 21.6152 30.1533 21.6187 29.0666 21.6222C28.9056 21.6257 28.7691 21.75 28.7411 21.9075C28.5766 22.828 27.0524 34.1553 26.9281 35.5273C26.9194 35.6183 26.9526 35.7128 27.0104 35.788C27.0716 35.8615 27.1626 35.907 27.2536 35.907C28.3351 35.9315 29.4183 35.956 30.5085 35.9735H30.512C30.6853 35.9735 30.834 35.8335 30.8515 35.655C30.9338 34.7503 32.4492 23.4019 32.6732 22.0107C32.689 21.9075 32.6645 21.8042 32.5945 21.7307C32.528 21.6485 32.4335 21.5942 32.3337 21.6065ZM37.0918 19.6536C36.2781 25.5176 35.4189 31.8157 34.6261 38.147C34.4494 39.5224 33.4292 40.6039 32.3005 40.6039H32.255C29.7525 40.5496 27.1556 40.4587 24.5447 40.3432C23.962 40.3187 23.4335 40.0299 23.0573 39.5207C22.674 39.0079 22.5043 38.3482 22.583 37.6622C23.2113 32.0204 23.9987 26.1406 24.9822 19.6605C25.2009 18.2396 26.3034 17.1214 27.4969 17.0829C30.078 17.0339 32.696 16.9831 35.2894 16.9586C35.8476 16.9586 36.3428 17.2194 36.6858 17.6901C37.0498 18.2063 37.1986 18.8993 37.0901 19.6518L37.0918 19.6536ZM52.0241 19.7148C51.3259 25.1659 50.5087 31.0089 49.4552 38.0997C49.2452 39.5207 48.1707 40.6441 47.0018 40.6599C44.4906 40.6966 41.8762 40.7141 39.3037 40.6966C38.7263 40.6931 38.2135 40.4202 37.8548 39.9249C37.4838 39.4087 37.3351 38.728 37.4296 37.9755C38.1978 31.9924 40.6005 14.395 40.9767 11.5916H42.9174C43.4791 11.5951 43.9796 11.8593 44.3261 12.3475C44.7023 12.8638 44.8511 13.5655 44.7513 14.318C44.7513 14.318 44.5448 15.9122 44.4626 16.5474C44.4503 16.6419 44.4783 16.7416 44.5448 16.8239C44.6061 16.9026 44.6971 16.9481 44.7968 16.9481C46.58 16.9569 48.365 16.9726 50.1482 17.0059C50.7186 17.0094 51.2226 17.2824 51.5814 17.7654C51.9611 18.2851 52.1186 18.9746 52.0241 19.7148ZM47.3622 21.589C47.3622 21.589 45.0331 21.5767 44.0951 21.5767C43.9306 21.5767 43.7854 21.7097 43.7609 21.883C43.6821 22.506 41.8867 35.676 41.8867 35.676C41.8779 35.7758 41.9024 35.879 41.9689 35.949C42.0302 36.0278 42.1264 36.0733 42.2244 36.0733C43.3024 36.0733 44.3891 36.0645 45.4706 36.0575C45.6351 36.054 45.7768 35.9245 45.8048 35.7635C45.9238 34.9498 47.5267 23.3459 47.6965 21.9915C47.7052 21.8882 47.6842 21.7815 47.6142 21.715C47.5442 21.6327 47.4567 21.5907 47.3622 21.5907V21.589Z" fill="#EE7100"/>
</svg>
