<svg width="165" height="22" viewBox="0 0 165 22" fill="none" xmlns="http://www.w3.org/2000/svg">
<g clip-path="url(#clip0_408_84)">
<path d="M62.8688 6.65078L65.8058 4.49282H55.9805V17.4602H65.8058V15.3023H58.7839V11.9811H64.7738V9.82075H58.7839V6.65039H62.8688V6.65078ZM48.5625 9.54653H45.151V6.65078H50.5987L53.5357 4.49007H42.3475V17.4602H48.2015C51.4866 17.4602 53.3691 15.9749 53.3691 13.3863C53.3691 10.9113 51.661 9.54653 48.5625 9.54653ZM48.0754 15.3023H45.151V11.7072H48.0754C49.8543 11.7072 50.6844 12.3091 50.6844 13.505C50.6844 14.7264 49.8063 15.3023 48.0754 15.3023ZM73.7667 4.49282H68.4175V17.4602H71.2206V13.7866H73.7667C77.1806 13.7866 79.3024 11.9964 79.3024 9.13325C79.3001 6.2705 77.1806 4.49282 73.7667 4.49282ZM73.7062 11.6287H71.2206V6.65078H73.7062C75.5027 6.65078 76.4915 7.53471 76.4915 9.13835C76.4915 10.7424 75.5027 11.6287 73.7062 11.6287ZM37.5335 14.6529C36.8145 15.0481 35.9766 15.2571 35.1135 15.2571C32.5854 15.2571 30.7512 13.4566 30.7512 10.9765C30.7512 8.49643 32.5854 6.6936 35.1139 6.6936C36.0701 6.6936 36.9277 6.9631 37.6647 7.48914L39.6757 6.01121L39.5418 5.89532C38.3687 4.86525 36.7992 4.32153 35.005 4.32153C33.0596 4.32153 31.2933 4.97603 30.0319 6.16482C28.7629 7.36068 28.0664 9.04525 28.0664 10.9035C28.0664 12.7719 28.7629 14.4789 30.0268 15.7128C31.2933 16.9491 33.0573 17.6315 34.9901 17.6315C37.011 17.6315 38.7773 16.9291 39.9735 15.6476L38.1593 14.3127L37.5335 14.6529Z" fill="#21A038"/>
<path d="M97.7221 7.71576L93.5487 14.5998H92.3804L88.1136 7.80651V17.4476H85.7949V4.49512H88.7245L93.0262 11.5457L97.2931 4.49512H100.038V17.4508H97.7197V7.71576H97.7221ZM114.915 17.4504H112.448L111.206 14.3782H105.254L104.03 17.4504H101.676L106.942 4.49512H109.576L114.915 17.4504ZM110.353 12.2482L108.221 6.93515L106.089 12.2482H110.353ZM118.882 13.4138V17.4476H116.563V4.49512H120.885C124.983 4.49512 126.726 5.95812 126.726 8.88176C126.726 11.8981 124.687 13.4165 120.885 13.4165H118.882V13.4138ZM118.882 6.62283V11.286H121.051C123.204 11.286 124.317 10.5836 124.317 8.82362C124.317 7.23254 123.353 6.62047 121.09 6.62047H118.882V6.62283ZM131.419 17.4504H129.101V4.49512H131.419V9.93658H133.368L137.541 4.49551H140.359L135.409 10.6594L141.159 17.4527H138.189L133.478 11.8451H131.419V17.4504ZM151.095 11.8427H145.123V15.3226H151.986V17.4504H142.807V4.49512H151.784V6.62283H145.125V9.71265H151.098V11.8427H151.095ZM164.208 6.62283H159.831V17.45H157.512V6.62283H153.21V4.49512H164.208V6.62283Z" fill="#FF8000"/>
<path d="M19.8554 4.27417C20.3816 4.94872 20.8274 5.68229 21.1837 6.46003L11.0845 13.8473L6.86523 11.2222V8.06406L11.0845 10.6895L19.8554 4.27417Z" fill="#21A038"/>
<path d="M2.56064 10.9996C2.56064 10.8581 2.56418 10.7171 2.57125 10.5772L0.01375 10.45C0.00510714 10.6322 0 10.8153 0 10.9992C0 14.036 1.24025 16.7867 3.24657 18.7777L5.05961 16.9785C3.51725 15.4463 2.56064 13.3316 2.56064 10.9992V10.9996Z" fill="url(#paint0_linear_408_84)"/>
<path d="M11.0833 2.54063C11.2263 2.54063 11.3682 2.54573 11.5092 2.55241L11.6373 0.0137702C11.4528 0.00484473 11.2681 0.000260133 11.0833 2.02149e-05C8.14742 -0.00558094 5.32902 1.153 3.24585 3.22184L5.05849 5.02113C6.65942 3.42963 8.82595 2.53764 11.0833 2.54063Z" fill="url(#paint1_linear_408_84)"/>
<path d="M11.0841 19.4587C10.9414 19.4587 10.7996 19.4556 10.6586 19.4485L10.5305 21.9864C10.714 21.995 10.8986 22.0001 11.0841 22.0001C14.1444 22.0001 16.9156 20.7693 18.9216 18.7783L17.1089 16.979C15.5075 18.5696 13.3412 19.4612 11.0841 19.4587Z" fill="url(#paint2_linear_408_84)"/>
<path d="M15.8899 4.01659L18.0459 2.44006C16.072 0.855928 13.6154 -0.0051064 11.0845 2.2784e-05V2.54142C12.7982 2.53839 14.473 3.05252 15.8899 4.01659Z" fill="url(#paint3_linear_408_84)"/>
<path d="M22.168 10.9997C22.168 10.3267 22.1068 9.66868 21.9905 9.02832L19.6047 10.7734C19.6062 10.8484 19.6082 10.9235 19.6082 10.9989C19.6082 13.4821 18.5239 15.7195 16.8 17.2681L18.5208 19.1558C20.7604 17.144 22.168 14.2345 22.168 10.9997Z" fill="#21A038"/>
<path d="M11.0848 19.4587C8.58228 19.4587 6.32846 18.3822 4.76764 16.6721L2.86621 18.3799C3.90799 19.5229 5.17728 20.4354 6.59256 21.0588C8.00785 21.6823 9.53787 22.0029 11.0844 22V19.4583L11.0848 19.4587Z" fill="url(#paint4_linear_408_84)"/>
<path d="M5.36839 4.72972L3.64768 2.84204C1.40721 4.85465 0 7.76415 0 10.9989H2.56064C2.56143 8.5149 3.64493 6.27836 5.36839 4.72972Z" fill="url(#paint5_linear_408_84)"/>
</g>
<defs>
<linearGradient id="paint0_linear_408_84" x1="3.76514" y1="18.4595" x2="1.00532" y2="10.4209" gradientUnits="userSpaceOnUse">
<stop offset="0.144" stop-color="#F2E913"/>
<stop offset="0.304" stop-color="#E7E518"/>
<stop offset="0.582" stop-color="#CADB26"/>
<stop offset="0.891" stop-color="#A3CD39"/>
</linearGradient>
<linearGradient id="paint1_linear_408_84" x1="3.97735" y1="3.67127" x2="11.1694" y2="0.909878" gradientUnits="userSpaceOnUse">
<stop offset="0.059" stop-color="#0FA8E0"/>
<stop offset="0.538" stop-color="#0099F9"/>
<stop offset="0.923" stop-color="#0291EB"/>
</linearGradient>
<linearGradient id="paint2_linear_408_84" x1="10.3616" y1="20.4664" x2="18.5039" y2="18.6121" gradientUnits="userSpaceOnUse">
<stop offset="0.123" stop-color="#A3CD39"/>
<stop offset="0.285" stop-color="#86C339"/>
<stop offset="0.869" stop-color="#21A038"/>
</linearGradient>
<linearGradient id="paint3_linear_408_84" x1="10.549" y1="0.851344" x2="17.5065" y2="3.01442" gradientUnits="userSpaceOnUse">
<stop offset="0.057" stop-color="#0291EB"/>
<stop offset="0.79" stop-color="#0C8ACB"/>
</linearGradient>
<linearGradient id="paint4_linear_408_84" x1="3.50814" y1="18.0703" x2="11.0773" y2="20.9197" gradientUnits="userSpaceOnUse">
<stop offset="0.132" stop-color="#F2E913"/>
<stop offset="0.298" stop-color="#EBE716"/>
<stop offset="0.531" stop-color="#D9E01F"/>
<stop offset="0.802" stop-color="#BBD62D"/>
<stop offset="0.983" stop-color="#A3CD39"/>
</linearGradient>
<linearGradient id="paint5_linear_408_84" x1="0.95425" y1="11.3069" x2="3.95843" y2="3.4329" gradientUnits="userSpaceOnUse">
<stop offset="0.07" stop-color="#A3CD39"/>
<stop offset="0.26" stop-color="#81C55F"/>
<stop offset="0.922" stop-color="#0FA8E0"/>
</linearGradient>
<clipPath id="clip0_408_84">
<rect width="164.214" height="22" fill="white"/>
</clipPath>
</defs>
</svg>
