<svg width="42" height="49" viewBox="0 0 42 49" fill="none" xmlns="http://www.w3.org/2000/svg">
<path d="M22.4062 10.8757V16.6086C22.4062 17.3849 21.7762 18.0149 21 18.0149C20.2237 18.0149 19.5938 17.3849 19.5938 16.6086V10.8757C19.5938 10.0985 20.2237 9.46948 21 9.46948C21.7762 9.46948 22.4062 10.0985 22.4062 10.8757Z" fill="#00CB76"/>
<path d="M22.4062 10.8757V16.6086C22.4062 17.3849 21.7763 18.0149 21 18.0149V9.46948C21.7763 9.46948 22.4062 10.0985 22.4062 10.8757Z" fill="#00A963"/>
<path d="M21.771 34.3324V18.4125L20.9999 15.6936H4.83086C2.5668 15.6936 0.724609 17.5359 0.724609 19.7999V32.1893C0.724609 34.4534 2.5668 36.2956 4.83086 36.2956H17.4412C18.1827 36.2956 18.7837 35.6947 18.7837 34.9541C18.7837 34.73 18.7284 34.5191 18.6309 34.3325L21.771 34.3324Z" fill="#FFCC00"/>
<path d="M41.2753 19.7999V32.1893C41.2753 34.4534 39.4331 36.2956 37.1691 36.2956L24.5859 36.3144H24.5841C23.8434 36.3144 23.2425 35.7144 23.2416 34.9738C23.2416 34.7422 23.2997 34.5238 23.4028 34.3325H21V15.6936H37.1691C39.4331 15.6936 41.2753 17.5359 41.2753 19.7999Z" fill="#FF9E22"/>
<path d="M20.9999 4.0529C20.7243 3.64467 20.4008 3.271 20.0362 2.9399C16.9658 0.156654 11.4552 0.905153 11.2218 0.939185C10.619 1.02506 10.1455 1.45322 10.0508 1.9995C10.0377 2.07515 9.92334 2.76675 9.92334 3.75056C9.92334 5.50922 10.2899 8.20331 12.2587 9.98831C14.2274 11.7725 17.2002 12.1046 19.1418 12.1046C20.0755 12.1046 20.7702 12.0281 20.9999 11.9992L24.2527 7.26497L20.9999 4.0529Z" fill="#8FE26A"/>
<path d="M20.9999 32.8193C16.588 32.8193 12.9983 36.4091 12.9983 40.8211C12.9983 45.2331 16.588 48.8227 20.9999 48.8227L22.9886 40.8211L20.9999 32.8193Z" fill="#FF8066"/>
<path d="M29.7412 9.98824C28.7569 10.8803 27.5213 11.4096 26.2894 11.7155C25.0575 12.0214 23.8294 12.1046 22.8581 12.1046C21.9244 12.1046 21.2297 12.0281 21 11.9993V4.05302C21.2756 3.64479 21.5991 3.27111 21.9637 2.94002C25.0341 0.156674 30.5456 0.905174 30.7781 0.939111C31.3809 1.02499 31.8544 1.45314 31.9491 1.99942C31.9856 2.21102 32.8116 7.20489 29.7412 9.98824Z" fill="#00CB76"/>
<path d="M29.0016 40.821C29.0016 45.233 25.4119 48.8227 21 48.8227V32.8193C25.4119 32.8193 29.0016 36.4091 29.0016 40.821Z" fill="#FF4D4D"/>
<path d="M21 38.8326L19.3509 37.1835C18.8015 36.6341 17.9118 36.6341 17.3625 37.1835C16.8131 37.7329 16.8131 38.6226 17.3625 39.172L19.0115 40.821L17.3625 42.4701C16.8131 43.0195 16.8131 43.9091 17.3625 44.4585C17.9109 45.0079 18.8015 45.0079 19.3509 44.4585L21 42.8095L21.6723 40.821L21 38.8326Z" fill="#FFF5F5"/>
<path d="M24.6375 42.4702C25.1869 43.0195 25.1869 43.9092 24.6375 44.4586C24.0881 45.008 23.1984 45.008 22.6491 44.4586L21 42.8095V38.8326L22.6491 37.1835C23.1984 36.6341 24.0881 36.6341 24.6375 37.1835C25.1869 37.7329 25.1869 38.6226 24.6375 39.172L22.9884 40.821L24.6375 42.4702Z" fill="#ECE6F2"/>
<path d="M21.7092 26.1127L21 25.7087L19.7484 21.4749C19.7437 21.4581 19.7381 21.4412 19.7325 21.4243C19.5018 20.7362 18.8353 20.2909 18.1106 20.3387C17.3859 20.3874 16.784 20.919 16.6471 21.6315C16.6462 21.6371 16.6453 21.6428 16.6443 21.6474L15.1453 29.9509C15.0075 30.7149 15.5156 31.4462 16.2796 31.5849C17.0437 31.7228 17.775 31.2146 17.9137 30.4506L18.5015 27.189L19.4887 30.534C19.6612 31.1584 20.2687 31.6646 21 31.6721L21.7092 29.9635V26.1127ZM8.64023 31.6735C5.51405 31.6735 2.9707 29.1302 2.9707 26.004C2.9707 22.8778 5.51405 20.3345 8.64023 20.3345C9.7762 20.3345 10.8727 20.6696 11.8111 21.3036C12.4546 21.7384 12.624 22.6125 12.1891 23.256C11.7542 23.8996 10.8803 24.0687 10.2366 23.634C9.76527 23.3154 9.20913 23.1457 8.64023 23.1469C7.06486 23.1469 5.7832 24.4285 5.7832 26.0039C5.7832 27.5793 7.06486 28.8609 8.64023 28.8609C9.73514 28.8609 10.3697 28.2315 10.6784 27.4102H9.76983C8.9932 27.4102 8.36358 26.7805 8.36358 26.0039C8.36358 25.2273 8.9932 24.5977 9.76983 24.5977H12.3205C13.0971 24.5977 13.7267 25.2273 13.7267 26.0039C13.7267 29.3422 11.6351 31.6735 8.64023 31.6735Z" fill="#FFF5F5"/>
<path d="M33.9893 31.6734C30.8631 31.6734 28.3197 29.1301 28.3197 26.0039C28.3197 22.8777 30.8631 20.3344 33.9893 20.3344C37.1154 20.3344 39.6588 22.8777 39.6588 26.0039C39.6587 29.1301 37.1153 31.6734 33.9893 31.6734ZM33.9893 23.1469C32.4139 23.1469 31.1322 24.4285 31.1322 26.0039C31.1322 27.5793 32.4139 28.8609 33.9893 28.8609C35.5646 28.8609 36.8463 27.5793 36.8463 26.0039C36.8462 24.4285 35.5645 23.1469 33.9893 23.1469ZM25.7813 31.582C25.0191 31.7283 24.2822 31.2276 24.1359 30.4645L23.5078 27.1786C22.5713 30.4673 22.5413 30.5686 22.5413 30.5686C22.4377 30.8887 22.2356 31.1679 21.9639 31.3663C21.6921 31.5646 21.3646 31.672 21.0281 31.673H21.0197C21.0131 31.673 21.0066 31.673 21 31.672V25.7086C21.0094 25.6805 21.0075 25.6889 21.0234 25.6317C21.0694 25.4733 21.2578 24.8133 22.2056 21.488C22.2103 21.472 22.215 21.4561 22.2206 21.4402C22.4447 20.7502 23.1066 20.2964 23.8313 20.3367C24.5559 20.378 25.1634 20.903 25.3078 21.6136C25.3088 21.6192 25.3106 21.6248 25.3116 21.6305L26.8988 29.9367C27.0441 30.6998 26.5444 31.4358 25.7813 31.582Z" fill="#ECE6F2"/>
</svg>
